<svg id="Soild" enable-background="new 0 0 512 512" height="512" viewBox="0 0 512 512" width="512" xmlns="http://www.w3.org/2000/svg"><path d="m232.599 162.884c-34.169 8.59-61.125 35.545-69.715 69.715 8.38-5.485 18.489-8.599 29.116-8.599 14.207 0 27.487 5.564 36.95 14.921 2.544-4.015 5.956-7.427 9.971-9.971-9.357-9.463-14.921-22.743-14.921-36.95 0-10.627 3.114-20.736 8.599-29.116z"/><ellipse cx="192" cy="256" rx="30.3" ry="16"/><path d="m302.935 109.981c-.035.062-.07.125-.105.188-.077.136-.154.273-.232.409l-.352.616c.383.123.768.248 1.153.375 7.658 2.52 15.117 5.657 22.284 9.368l.195-.715c.037-.137.075-.274.114-.41.015-.055.031-.11.047-.166.024-.084.047-.167.071-.251.019-.065.037-.13.056-.196.018-.062.036-.123.054-.185 1.32-4.514 3.096-8.863 5.303-12.99-4.459-6.267-11.633-10.024-19.523-10.024-1.094 0-2.182.073-3.255.218-1.408 4.735-3.333 9.307-5.747 13.65-.021.038-.042.075-.063.113z"/><ellipse cx="256" cy="320" rx="16" ry="30.3"/><circle cx="256" cy="256" r="16"/><path d="m310.422 64.804c.01.053.019.106.028.159.003.016.005.032.008.048.872 4.936 1.204 9.966.98 14.993.188-.002.375-.004.562-.004 11.281 0 21.682 4.608 29.102 12.509 3.557-3.914 7.553-7.397 11.894-10.382 2.824-1.951 5.798-3.694 8.898-5.206-16.957-10.076-35.077-17.586-54.15-22.447 1.164 3.376 2.057 6.832 2.678 10.33z"/><path d="m279.401 349.116c34.206-8.6 61.183-35.604 69.743-69.827-8.458 5.555-18.686 8.711-29.441 8.711-14.13 0-27.349-5.447-36.842-14.625-2.523 3.886-5.865 7.194-9.781 9.675 9.356 9.463 14.92 22.743 14.92 36.95 0 10.627-3.114 20.736-8.599 29.116z"/><ellipse cx="256" cy="192" rx="16" ry="30.3"/><path d="m319.702 272c12.706 0 24.281-6.17 30.533-16-6.251-9.83-17.827-16-30.533-16s-24.281 6.17-30.533 16c6.252 9.83 17.828 16 30.533 16z"/><path d="m331.524 405.977c-2.065-3.86-3.752-7.916-5.042-12.119-.002-.007-.004-.014-.006-.021-.132-.432-.26-.865-.384-1.299-.012-.044-.025-.087-.037-.131-.059-.209-.117-.418-.175-.627l-.195-.715c-7.159 3.707-14.606 6.84-22.244 9.354-.012.004-.038.013-.065.021-.375.124-.752.246-1.128.366l.352.616c.077.135.154.27.23.406.034.061.069.123.103.184.024.042.047.084.071.127 2.413 4.342 4.336 8.911 5.743 13.643 1.073.145 2.16.218 3.255.218 7.888 0 15.062-3.757 19.522-10.023z"/><path d="m362.603 417.078c.04.027.08.054.121.081 9.268 6.166 20.512 9.398 32.219 8.614l28.904-1.926 1.926-28.904c.819-12.281-2.779-24.054-9.548-33.571-6.591-9.224-16.125-16.266-27.228-19.644-.06-.018-.119-.036-.178-.054-.086-.026-.172-.051-.258-.077-.099-.029-.199-.058-.299-.087-.064-.018-.127-.037-.191-.055-.167-.047-.333-.094-.501-.14l-4.924-1.343c-4.132 6.208-8.722 12.108-13.713 17.646l17.175 17.175-11.313 11.313-17.175-17.175c-5.538 4.991-11.438 9.581-17.646 13.713l1.343 4.924c.046.167.092.334.14.501.018.063.036.126.054.19.029.101.058.202.088.302.025.084.05.168.075.252.019.062.038.124.056.186 3.508 11.525 10.964 21.359 20.709 27.966.054.039.109.076.164.113zm34.818-30.97 11.313 11.313-11.313 11.313-11.313-11.313z"/><path d="m295.944 125.984-.634-.194c-.047-.014-.096-.029-.124-.038-.738-.222-1.546-.458-2.357-.687l-.686-.191c-.62-.171-1.231-.335-1.845-.495-.001 0-.099-.025-.1-.026l-.723-.186c-.346-.088-.733-.185-1.123-.281-.01-.002-.02-.005-.031-.007-4.226-1.034-8.513-1.86-12.837-2.479-12.192-1.744-24.677-1.838-36.901-.28-5.025.641-10.007 1.56-14.906 2.759-.006.001-.011.002-.017.004-.398.097-.794.197-1.191.298-.001 0-.129.033-.13.033l-.56.144c-.689.18-1.306.345-1.921.515l-.727.203c-.771.217-1.582.454-2.39.698l-.635.193c-.017.005-.033.01-.048.015-.821.253-1.646.515-2.466.785 0 0-.003.001-.003.001-9.806 3.227-19.266 7.596-28.117 12.987-.005.003-.01.006-.015.01-18.575 11.317-34.376 27.118-45.693 45.693-.005.008-.01.016-.015.025-5.844 9.597-10.478 19.889-13.771 30.59-.006.021-.013.042-.02.064l-.174.57c-.252.834-.494 1.662-.727 2.492-.246.875-.471 1.704-.687 2.536-.003.014-.007.027-.011.042l-.153.592c-.001.005-.003.011-.004.016-.006.021-.021.082-.024.093-.097.381-.2.79-.3 1.201-.002.008-.004.016-.006.025-2.569 10.512-3.872 21.378-3.872 32.296 0 2.732.082 5.46.244 8.181.102 1.7.235 3.397.4 5.09.033.339.067.677.103 1.015.639 6.088 1.685 12.118 3.133 18.036.001.003.001.005.002.008.099.408.202.815.305 1.221l.175.68c.225.862.448 1.688.68 2.511.003.011.025.089.028.1.223.793.464 1.618.712 2.44l.183.6c.005.017.01.033.015.047.252.821.513 1.638.78 2.452l.002.006c3.239 9.84 7.61 19.303 13.003 28.154 11.317 18.575 27.118 34.376 45.693 45.693 8.848 5.391 18.306 9.761 28.112 12.99.852.28 1.664.539 2.479.789l-2.233 7.683 2.342-7.649.523.159c.022.007.053.016.085.026.587.177 1.177.351 1.767.52.021.006.042.012.061.017l1.24.349c.01.003.02.005.03.008.612.169 1.225.334 1.841.494l.757.195c.407.103.805.204 1.206.302.003.001.007.002.01.002 21.043 5.149 43.604 5.148 64.645 0 .003-.001.006-.001.009-.002.396-.097.792-.196 1.186-.297.012-.003.122-.031.133-.034l.555-.143c.704-.184 1.313-.347 1.922-.515l.591-.165c.002 0 .12-.034.122-.034l.56-.159c.639-.184 1.245-.361 1.848-.544l.632-.192c.012-.004.092-.029.104-.032.782-.241 1.587-.497 2.389-.761l.075-.024c9.841-3.248 19.257-7.602 28.068-12.968.008-.005.017-.011.025-.016 18.575-11.317 34.376-27.118 45.693-45.693.005-.008.01-.017.016-.025 5.383-8.839 9.747-18.286 12.972-28.08.285-.865.541-1.67.79-2.479l.195-.64c.007-.022.034-.11.041-.132.164-.542.341-1.147.516-1.754.006-.022.024-.083.03-.105l.138-.487c0-.001.034-.12.034-.122l.16-.575c.172-.624.335-1.233.495-1.845 0-.001.025-.099.026-.1l.141-.547c.003-.011.031-.122.034-.133.1-.395.199-.79.297-1.186.001-.003.001-.006.002-.009 2.573-10.52 3.878-21.394 3.878-32.321 0-10.926-1.305-21.801-3.879-32.322-.001-.006-.003-.012-.004-.018-.097-.394-.195-.787-.295-1.18l-.179-.696c-.179-.687-.341-1.292-.507-1.894-.003-.013-.007-.026-.011-.04l-.348-1.237c-.185-.646-.364-1.253-.547-1.859l-.195-.639c-.273-.888-.532-1.699-.797-2.506-.01-.031-.023-.069-.029-.088-3.208-9.746-7.574-19.197-12.958-28.037-.005-.009-.01-.017-.016-.025-11.317-18.575-27.118-34.376-45.693-45.693-8.852-5.394-18.314-9.765-28.125-12.994-.833-.274-1.651-.535-2.473-.788zm31.628 43.865-10.23 12.302c-11.083-9.216-24.084-15.761-37.926-19.245 5.476 8.376 8.584 18.476 8.584 29.094 0 14.207-5.564 27.487-14.921 36.949 3.916 2.481 7.258 5.788 9.781 9.675 9.493-9.177 22.712-14.624 36.842-14.624 10.747 0 20.966 3.151 29.42 8.697-3.476-13.884-10.031-26.926-19.273-38.039l12.302-10.23c16.669 20.044 25.849 45.462 25.849 71.572 0 61.757-50.243 112-112 112-26.11 0-51.528-9.18-71.572-25.849l10.23-12.302c11.083 9.217 24.084 15.761 37.927 19.245-5.476-8.376-8.585-18.476-8.585-29.094 0-14.207 5.564-27.487 14.921-36.949-4.015-2.544-7.427-5.956-9.971-9.971-9.463 9.356-22.743 14.92-36.95 14.92-10.618 0-20.718-3.109-29.094-8.585 3.484 13.842 10.028 26.844 19.245 37.927l-12.302 10.23c-16.669-20.044-25.849-45.462-25.849-71.572 0-61.757 50.243-112 112-112 26.11 0 51.528 9.18 71.572 25.849z"/><path d="m391.78 325.879c.137.037.274.075.41.114.055.015.11.031.166.047.084.024.167.047.251.071.065.019.13.037.196.056.062.018.123.036.185.054 4.514 1.32 8.863 3.096 12.99 5.303 6.265-4.46 10.022-11.634 10.022-19.524 0-1.095-.073-2.182-.218-3.255-4.44-1.321-8.737-3.095-12.836-5.302-.025-.013-.05-.027-.075-.04-.128-.069-.255-.138-.382-.208-.04-.022-.081-.044-.121-.066-.117-.065-.235-.13-.352-.195-.042-.024-.084-.047-.126-.071-.018-.01-.036-.02-.054-.03-.138-.077-.275-.155-.412-.234l-.616-.352c-.122.38-.243.755-.366 1.129-.009.027-.039.118-.048.145-2.496 7.581-5.623 15.011-9.328 22.165z"/><path d="m353.236 430.038c-4.433-3.021-8.511-6.561-12.134-10.547-7.42 7.901-17.821 12.509-29.102 12.509-.187 0-.374-.002-.561-.004.228 5.116-.12 10.235-1.027 15.254-.621 3.48-1.511 6.918-2.669 10.277 19.074-4.861 37.194-12.372 54.15-22.447-3.012-1.47-5.905-3.157-8.657-5.042z"/><path d="m423.846 88.154-28.904-1.927c-12.094-.809-23.697 2.669-33.137 9.242-.009.006-.017.012-.026.018-.039.027-.077.055-.116.082-9.366 6.598-16.521 16.215-19.935 27.434-.018.06-.036.119-.054.178-.026.086-.051.172-.077.258-.029.099-.058.199-.087.299-.018.064-.037.127-.055.191-.047.167-.094.333-.14.501l-1.343 4.924c6.208 4.132 12.108 8.722 17.646 13.713l17.175-17.175 11.313 11.313-17.175 17.175c4.991 5.538 9.581 11.438 13.713 17.646l4.924-1.343c.167-.046.334-.092.501-.14.064-.018.127-.036.191-.055.1-.029.199-.058.299-.087.086-.025.172-.051.258-.077.06-.018.119-.036.178-.054 11.099-3.377 20.631-10.416 27.222-19.636 6.773-9.518 10.373-21.294 9.554-33.579zm-26.425 37.738-11.313-11.313 11.313-11.313 11.313 11.313z"/><path d="m429.755 159.176c-2.959 4.274-6.401 8.212-10.264 11.723 7.901 7.419 12.509 17.82 12.509 29.101 0 .187-.002.374-.004.561 5.107-.228 10.218.119 15.229 1.022 3.489.621 6.935 1.513 10.302 2.674-4.861-19.074-12.372-37.194-22.447-54.15-1.543 3.163-3.326 6.194-5.325 9.069z"/><path d="m474.295 277.8 19.075-21.8-19.075-21.8c-8.217-9.39-19.273-15.201-30.965-17.064-11.035-1.734-22.565.054-32.658 5.434-.042.023-.085.045-.127.068-.068.036-.135.073-.203.109-.028.015-.056.03-.085.046-.045.025-.091.05-.136.075-.254.14-.508.281-.76.425l-3.792 2.167-.584.334c1.477 7.302 2.415 14.73 2.806 22.206h24.209v16h-24.21c-.391 7.476-1.329 14.903-2.806 22.206l4.377 2.501c.15.086.301.171.452.255.061.034.123.068.184.102.085.047.17.094.255.14.085.047.171.093.257.139.047.025.095.051.142.076 10.362 5.53 22.24 7.271 33.543 5.302.034-.006.069-.012.103-.018.009-.002.018-.003.027-.005 11.323-2.028 21.988-7.773 29.971-16.898zm-10.295-13.8h-16v-16h16z"/><path d="m429.829 352.931c.01.014.019.028.029.042 1.958 2.831 3.706 5.812 5.222 8.921 10.076-16.957 17.586-35.077 22.447-54.15-3.405 1.174-6.89 2.073-10.419 2.695-.021.004-.042.008-.063.011l-.042.007c-3.943.698-7.946 1.051-11.959 1.051-1.015 0-2.031-.023-3.047-.068.003.187.004.374.004.561 0 11.281-4.608 21.682-12.509 29.102 3.893 3.538 7.359 7.509 10.333 11.822.001.001.002.003.004.006z"/><path d="m400.807 209.753.616-.352c.137-.079.275-.156.413-.234.056-.031.112-.062.168-.094.047-.026.094-.052.14-.078.032-.018.065-.036.097-.054.377-.208.755-.413 1.135-.614.015-.008.03-.016.045-.024 3.957-2.09 8.093-3.779 12.361-5.049.145-1.073.218-2.16.218-3.255 0-7.89-3.757-15.064-10.023-19.524-4.04 2.161-8.293 3.908-12.706 5.22-.015.005-.03.009-.046.014-.075.022-.149.044-.224.066-.068.02-.136.04-.205.06-.062.018-.124.036-.185.053-.088.025-.175.05-.263.075-.052.015-.104.029-.156.044-.138.038-.275.077-.413.114l-.715.195c3.708 7.162 6.843 14.614 9.358 22.255.001.002.015.044.015.046.126.378.249.757.37 1.136z"/><path d="m76.921 150.106c-10.076 16.957-17.586 35.077-22.447 54.15 3.543-1.222 7.174-2.145 10.849-2.769 4.836-.832 9.76-1.146 14.681-.926-.002-.186-.004-.373-.004-.561 0-11.281 4.608-21.682 12.509-29.102-3.884-3.53-7.344-7.493-10.314-11.795-1.979-2.853-3.745-5.86-5.274-8.997z"/><path d="m88.154 423.846 28.903 1.926c12.087.808 23.682-2.665 33.119-9.229.02-.014.039-.027.059-.041s.04-.028.06-.042c9.387-6.598 16.558-16.228 19.977-27.464.018-.06.036-.119.054-.178.026-.086.051-.172.077-.258.029-.099.058-.199.087-.299.018-.064.037-.127.055-.191.047-.167.094-.333.14-.501l1.343-4.924c-6.208-4.132-12.108-8.722-17.646-13.713l-17.175 17.175-11.313-11.313 17.175-17.175c-4.991-5.538-9.581-11.438-13.713-17.646l-4.924 1.343c-.167.046-.334.092-.501.14-.065.018-.129.037-.194.056-.098.028-.196.057-.294.085-.087.026-.174.051-.26.077-.059.018-.118.036-.177.053-11.114 3.382-20.657 10.435-27.249 19.673-6.756 9.512-10.346 21.273-9.528 33.542zm26.425-37.738 11.313 11.313-11.313 11.313-11.313-11.313z"/><path d="m201.577 447.187c-.008-.047-.017-.094-.025-.141-.005-.029-.01-.059-.015-.088-.868-4.926-1.199-9.946-.975-14.963-.188.003-.375.005-.562.005-11.281 0-21.682-4.608-29.103-12.51-3.449 3.794-7.309 7.184-11.496 10.107-2.942 2.063-6.049 3.899-9.295 5.482 16.957 10.075 35.077 17.586 54.15 22.447-1.164-3.379-2.058-6.837-2.679-10.339z"/><path d="m82.066 353.084c2.999-4.375 6.502-8.401 10.443-11.982-7.901-7.42-12.509-17.821-12.509-29.102 0-.187.002-.374.004-.561-1.016.045-2.032.068-3.047.068-4.019 0-8.028-.354-11.976-1.053-.003 0-.006-.001-.009-.002-.034-.006-.068-.012-.103-.018-3.52-.622-6.998-1.519-10.395-2.69 4.86 19.073 12.372 37.193 22.447 54.15 1.496-3.068 3.218-6.012 5.145-8.81z"/><path d="m209.032 402.078c.122-.219.244-.437.369-.654l.186-.326.166-.291c-.377-.121-.755-.243-1.132-.367-7.678-2.528-15.14-5.666-22.305-9.375l-.195.715c-.057.208-.115.416-.173.623-.013.046-.026.092-.039.138-1.333 4.674-3.153 9.174-5.432 13.436 4.459 6.266 11.633 10.023 19.523 10.023 1.095 0 2.182-.073 3.255-.218 1.414-4.751 3.347-9.34 5.774-13.698.001-.003.002-.005.003-.006z"/><path d="m37.705 234.2-19.075 21.8 19.075 21.8c8.102 9.259 18.966 15.039 30.478 16.985 11.194 1.866 22.929.101 33.179-5.373.04-.021.079-.042.119-.064.092-.049.183-.099.274-.149l.24-.132c.064-.035.128-.071.192-.106.151-.084.301-.169.451-.255l4.377-2.501c-1.477-7.302-2.415-14.73-2.806-22.206h-24.209v-16h24.21c.391-7.475 1.329-14.903 2.806-22.206l-4.377-2.501c-.151-.086-.302-.171-.454-.256-.059-.033-.118-.065-.177-.098-.089-.049-.179-.099-.269-.148-.076-.041-.152-.083-.228-.124-.064-.035-.128-.069-.193-.103-9.969-5.312-21.339-7.119-32.248-5.491-.025.004-.05.008-.075.011-.09.014-.18.028-.27.042-11.711 1.856-22.79 7.67-31.02 17.075zm10.295 13.8h16v16h-16z"/><path d="m277.8 37.706-21.8-19.076-21.8 19.075c-9.375 8.203-15.183 19.238-17.055 30.909-1.749 11.056.037 22.613 5.432 32.725.028.053.057.106.085.159.044.082.088.164.133.245.038.069.076.139.114.208.043.079.087.158.131.236.039.07.078.139.118.209.046.081.091.161.137.242l2.501 4.377c7.299-1.477 14.734-2.408 22.206-2.796v-24.219h16v24.22c7.471.388 14.906 1.32 22.206 2.796l2.501-4.377c.086-.15.171-.301.255-.452.034-.061.067-.122.101-.183.048-.086.096-.173.143-.26.045-.082.089-.163.133-.245.029-.053.057-.106.085-.159 5.459-10.234 7.223-21.946 5.367-33.121-1.941-11.525-7.723-22.403-16.993-30.513zm-13.8 26.294h-16v-16h16z"/><path d="m159.538 82.5c4.134 2.901 7.948 6.257 11.359 10.01 7.421-7.902 17.822-12.51 29.103-12.51.187 0 .374.002.561.004-.219-4.913.094-9.83.922-14.658.624-3.684 1.549-7.322 2.773-10.872-19.073 4.861-37.193 12.372-54.15 22.447 3.297 1.607 6.45 3.476 9.432 5.579z"/><path d="m149.795 95.193c-.02-.014-.04-.027-.06-.041-9.355-6.367-20.778-9.721-32.678-8.925l-28.903 1.927-1.927 28.903c-.819 12.28 2.778 24.051 9.545 33.567 6.591 9.225 16.126 16.268 27.23 19.647.059.018.119.036.178.054.086.026.172.051.258.077.099.029.199.058.299.087.064.018.127.037.191.055.167.047.334.094.501.14l4.924 1.343c4.132-6.208 8.722-12.108 13.713-17.646l-17.175-17.175 11.313-11.313 17.175 17.175c5.538-4.991 11.438-9.581 17.646-13.713l-1.343-4.924c-.046-.167-.092-.334-.14-.501-.018-.063-.036-.126-.054-.19-.029-.101-.058-.202-.088-.302-.025-.084-.05-.168-.075-.252-.019-.062-.037-.124-.056-.186-3.458-11.359-10.75-21.076-20.29-27.679-.06-.043-.122-.086-.184-.128zm-35.216 30.699-11.313-11.313 11.313-11.313 11.313 11.313z"/><path d="m209.401 110.577c-.078-.137-.156-.275-.234-.412-.033-.058-.065-.117-.098-.175-.025-.044-.049-.088-.074-.132-2.412-4.341-4.334-8.909-5.742-13.639-1.072-.146-2.158-.219-3.253-.219-7.89 0-15.064 3.757-19.524 10.023 2.161 4.041 3.909 8.295 5.221 12.709.004.014.008.028.013.042.022.075.044.149.066.224.02.068.04.136.059.204.018.063.036.126.055.19.024.085.049.17.073.255.015.053.03.107.045.16.038.137.077.275.114.413l.195.715c7.169-3.712 14.626-6.849 22.273-9.365l2.5 7.599-2.499-7.599c.387-.127.774-.253 1.163-.378z"/><path d="m225.794 404.984-2.501 4.377c-.087.152-.173.304-.258.457-.03.055-.061.109-.091.164-.051.093-.102.186-.153.278-.042.078-.085.156-.127.234-.031.058-.062.116-.093.175-5.385 10.1-7.171 21.638-5.432 32.68 1.866 11.685 7.676 22.734 17.061 30.946l21.8 19.075 21.8-19.075c9.272-8.113 15.055-18.996 16.993-30.525 1.831-11.041.129-22.606-5.179-32.75-.009-.018-.018-.035-.027-.053-.044-.085-.09-.169-.135-.253-.045-.085-.091-.17-.136-.255-.03-.056-.06-.111-.09-.167-.059-.109-.119-.218-.179-.327-.024-.043-.047-.086-.071-.128-.088-.159-.178-.317-.268-.475l-2.501-4.377c-.309.062-.619.124-.929.185-7.001 1.37-14.122 2.24-21.277 2.612v24.218h-16v-24.219c-7.472-.388-14.907-1.32-22.207-2.797zm38.206 43.016v16h-16v-16z"/><path d="m111.568 303.401c-.126-.384-.251-.769-.375-1.154l-.616.352c-.136.078-.272.155-.409.232-.018.01-.036.02-.055.031-.044.025-.089.049-.133.074-.119.066-.237.132-.357.198-.032.018-.065.036-.097.053-.136.074-.272.148-.408.222-.018.01-.036.019-.054.029-4.103 2.209-8.403 3.986-12.847 5.308-.144 1.073-.217 2.159-.217 3.254 0 7.89 3.757 15.064 10.023 19.524 4.04-2.161 8.293-3.908 12.706-5.22.015-.005.03-.009.046-.014.075-.022.149-.044.224-.066.068-.02.136-.04.205-.06.062-.018.124-.036.185-.053.088-.025.175-.05.263-.075.052-.015.104-.029.156-.044.138-.038.275-.077.413-.114l.715-.195c-3.71-7.165-6.846-14.62-9.362-22.266l7.593-2.519z"/><path d="m120.22 186.121c-.137-.037-.274-.075-.41-.114-.055-.015-.11-.031-.165-.047-.084-.024-.168-.047-.251-.071-.065-.019-.131-.037-.196-.056-.062-.018-.123-.036-.185-.054-4.514-1.32-8.863-3.096-12.989-5.303-6.267 4.46-10.024 11.634-10.024 19.524 0 1.095.073 2.182.218 3.255 4.741 1.411 9.32 3.339 13.669 5.758.023.013.046.025.069.038.207.116.414.232.621.35l.617.353c2.58-8.062 5.842-15.908 9.742-23.438z"/></svg>